<?xml version="1.0" encoding="UTF-8"?>
<svg width="450px" height="130px" viewBox="0 0 450 130" version="1.1" xmlns="http://www.w3.org/2000/svg" xmlns:xlink="http://www.w3.org/1999/xlink" preserveAspectRatio="none">
    <!-- Generator: Sketch 41.2 (35397) - http://www.bohemiancoding.com/sketch -->
    <title>Group 2</title>
    <desc>Created with Sketch.</desc>
    <defs></defs>
    <g id="Page-1" stroke="none" stroke-width="1" fill="none" fill-rule="evenodd">
        <g id="Artboard" transform="translate(-175.000000, -540.000000)">
            <g id="Group" transform="translate(175.000000, 70.000000)">
                <g id="Group-2" transform="translate(0.000000, 470.000000)">
                    <rect id="Rectangle-2" fill="#E44A00" x="0" y="0" width="290" height="130"></rect>
                    <rect id="Rectangle-2" fill="#113244" x="290" y="0" width="160" height="130"></rect>
                    <path d="M83.112,89 L96.412,89 L74.904,62.096 L95.044,38.308 L81.744,38.308 L63.808,60.956 L63.808,38.308 L53.016,38.308 L53.016,89 L63.808,89 L63.808,73.42 L67.76,68.708 L83.112,89 Z M125.9,89 L135.552,89 L135.552,63.084 C135.552,55.94 131.676,51.38 123.62,51.38 C117.616,51.38 113.132,54.268 110.776,57.08 L110.776,52.292 L101.124,52.292 L101.124,89 L110.776,89 L110.776,64.3 C112.372,62.096 115.336,59.968 119.136,59.968 C123.24,59.968 125.9,61.716 125.9,66.808 L125.9,89 Z M162.152,89.912 C174.312,89.912 181.608,81.096 181.608,70.608 C181.608,60.196 174.312,51.38 162.152,51.38 C150.068,51.38 142.772,60.196 142.772,70.608 C142.772,81.096 150.068,89.912 162.152,89.912 Z M162.152,81.324 C156.148,81.324 152.804,76.384 152.804,70.608 C152.804,64.908 156.148,59.968 162.152,59.968 C168.156,59.968 171.576,64.908 171.576,70.608 C171.576,76.384 168.156,81.324 162.152,81.324 Z M220.976,89 L231.236,89 L242.408,52.292 L232.376,52.292 L225.536,76.992 L217.48,52.292 L208.892,52.292 L200.836,76.992 L193.996,52.292 L183.964,52.292 L195.136,89 L205.472,89 L213.224,63.996 L220.976,89 Z" id="Know" fill="#FFFFFF"></path>
                    <path d="M342.016,89 L352.808,89 L352.808,38.308 L342.016,38.308 L342.016,89 Z M374.544,89 L385.412,89 L385.412,47.808 L400.156,47.808 L400.156,38.308 L359.724,38.308 L359.724,47.808 L374.544,47.808 L374.544,89 Z" id="IT" fill="#FFFFFF"></path>
                </g>
            </g>
        </g>
    </g>
</svg>
