<?xml version="1.0" encoding="UTF-8"?>
<svg width="246px" height="90px" viewBox="0 0 246 90" version="1.1" xmlns="http://www.w3.org/2000/svg" xmlns:xlink="http://www.w3.org/1999/xlink">
    <!-- Generator: Sketch 42 (36781) - http://www.bohemiancoding.com/sketch -->
    <title>Group</title>
    <desc>Created with Sketch.</desc>
    <defs></defs>
    <g id="Page-1" stroke="none" stroke-width="1" fill="none" fill-rule="evenodd">
        <g id="Group">
            <path d="M0,12.0007992 C0,10.8957883 0.899845187,10 2.00701877,10 L150,10 L150,80 L2.00701877,80 C0.898572913,80 0,79.1021838 0,77.9992008 L0,12.0007992 Z" id="Rectangle-2" fill="#E45D00"></path>
            <path d="M150,9.97630278 L235.48471,3.35807824 C236.873866,3.26128531 238,4.25194686 238,5.565079 L238,84.138024 C238,85.4535704 236.871317,86.4416404 235.48471,86.3450248 L150,79.7268002 L150,9.97630278 Z" id="Rectangle-3" fill="#113244" opacity="0.5"></path>
            <path d="M150,10 L227.713372,0.337055528 C228.976242,0.180029291 230,1.2057167 230,2.62217584 L230,87.3778242 C230,88.7968875 228.973924,89.8196825 227.713372,89.6629445 L150,80 L150,10 Z" id="Rectangle-3" fill="#113244"></path>
            <path d="M238,6.51876705 L243.166531,6.32140565 C244.731413,6.27944613 246,7.23994858 246,8.46123971 L246,81.5387603 C246,82.7622968 244.728541,83.7204774 243.166531,83.6785943 L238,83.4812329 L238,6.51876705 Z" id="Combined-Shape" fill="#113244" opacity="0.200000003"></path>
            <path d="M39.028,58.681 L46.553,58.681 L34.384,43.459 L45.779,30 L38.254,30 L28.106,42.814 L28.106,30 L22,30 L22,58.681 L28.106,58.681 L28.106,49.866 L30.342,47.2 L39.028,58.681 Z M63.237,58.681 L68.698,58.681 L68.698,44.018 C68.698,39.976 66.505,37.396 61.947,37.396 C58.55,37.396 56.013,39.03 54.68,40.621 L54.68,37.912 L49.219,37.912 L49.219,58.681 L54.68,58.681 L54.68,44.706 C55.583,43.459 57.26,42.255 59.41,42.255 C61.732,42.255 63.237,43.244 63.237,46.125 L63.237,58.681 Z M83.748,59.197 C76.911,59.197 72.783,54.209 72.783,48.275 C72.783,42.384 76.911,37.396 83.748,37.396 C90.628,37.396 94.756,42.384 94.756,48.275 C94.756,54.209 90.628,59.197 83.748,59.197 Z M83.748,54.338 C87.145,54.338 89.08,51.543 89.08,48.275 C89.08,45.05 87.145,42.255 83.748,42.255 C80.351,42.255 78.459,45.05 78.459,48.275 C78.459,51.543 80.351,54.338 83.748,54.338 Z M117.03,58.681 L122.835,58.681 L129.156,37.912 L123.48,37.912 L119.61,51.887 L115.052,37.912 L110.193,37.912 L105.635,51.887 L101.765,37.912 L96.089,37.912 L102.41,58.681 L108.258,58.681 L112.644,44.534 L117.03,58.681 Z" id="Know" fill="#FFFFFF" fill-rule="nonzero"></path>
            <path d="M176,58.8651149 L181.679667,59.3819354 L181.679667,31.3883304 L176,31.9372527 L176,58.8651149 Z M193.118996,60.4173943 L198.83866,60.9310708 L198.83866,35.584069 L206.598205,35.1135864 L206.598205,29 L185.319454,31.0370003 L185.319454,36.4109407 L193.118996,35.9330229 L193.118996,60.4173943 Z" id="IT" fill="#FFFFFF" fill-rule="nonzero"></path>
        </g>
    </g>
</svg>